# xmcd CD database file generated by RipIT.
#
# Track frame offsets:
#	151
#	17761
#	36120
#	52785
#	64502
#	79565
#	97089
#	111635
#	126427
#	145902
#	160635
#	176584
#
# Disc length: 2528 seconds
#
# Revision: 1
# Processed by: cddbd v1.5.1PL2 Copyright (c) Steve Scherf et al.
# Submitted via: RipIT 3.4 www.suwald.com/ripit/ripit.html at Thu Feb 2 08:14:28 CET 2006.
#
DISCID=9b09de0c
DTITLE=Cardigans - First Band On The Moon
DYEAR=1996
DGENRE=Pop
TTITLE0=Your New Cuckoo
TTITLE1=Been It
TTITLE2=Heartbreaker
TTITLE3=Happy Meal II
TTITLE4=Never Recover
TTITLE5=Step On Me
TTITLE6=Lovefool
TTITLE7=Losers
TTITLE8=Iron Man
TTITLE9=Great Divide
TTITLE10=Choke
TTITLE11=Country Hell
EXTD=
EXTT0=
EXTT1=
EXTT2=
EXTT3=
EXTT4=
EXTT5=
EXTT6=
EXTT7=
EXTT8=
EXTT9=
EXTT10=
EXTT11=
PLAYORDER=
